<?xml version="1.0" encoding="UTF-8"?>
<svg xmlns="http://www.w3.org/2000/svg" viewBox="0 0 858.22 796.6">
  <defs>
    <style>
      .cls-1, .cls-2, .cls-3, .cls-4 {
        fill: none;
        stroke: #000;
        stroke-miterlimit: 10;
      }

      .cls-5, .cls-6, .cls-7 {
        stroke-width: 0px;
      }

      .cls-2 {
        stroke-width: 10px;
      }

      .cls-3 {
        stroke-width: 3px;
      }

      .cls-6 {
        fill: #c10a43;
      }

      .cls-4 {
        stroke-width: 9px;
      }

      .cls-7 {
        fill: #ed9abc;
      }
    </style>
  </defs>
  <g id="Layer_4" data-name="Layer 4">
    <g>
      <g>
        <path class="cls-7" d="M532.21,286.75c5.93,12.36,10.83,25.21,14.6,38.38,2.1,7.33,4.41,15.06,7.99,21.88-7.1,4.15-13.54,9.42-18.97,15.61l.28,2.08c7.45-4.73,15.74-7.47,24.39-9.12.95,1.12,1.98,2.19,3.08,3.19l-.31.34c-7.64,2.6-15.47,7.06-20.15,13.64v.79c2.37,2.92,5.31,5.4,8.58,7.27l-.23.39c-13.59,23.74-32.85,44.16-55.59,59.34-10.75,7.19-22.28,13.21-34.35,17.86-5.87,2.26-11.86,4.21-17.9,5.98-4.25,1.26-8.51,2.43-12.79,3.57-20.18,5.37-40.72,10.14-61.59,10.4-12.06.16-24.11-1.2-35.98-3.35-38.67-6.98-75.81-22.79-107.63-45.77-22.04-15.92-41.52-35.27-57.19-57.52l.25-1.17c2.14-2.01,8.22-2.71,10.76-1.21,2.53,1.49,4.35,3.9,6.34,6.06,9.06,9.83,22.9,15.03,36.19,13.6,14.17-1.53,26.67-9.93,40.54-13.24,13.47-3.21,27.57-1.48,41.4-2.29,13.83-.81,28.75-5.03,36.54-16.48,5.83-8.56,6.56-19.49,6.95-29.84.37-9.61.59-19.35-1.57-28.72-1.24-5.36-3.26-10.61-3.31-16.1-.13-13.28,10.75-23.6,18.41-34.45,16.46-23.36,19.53-54.65,6.8-80.24l.02-.79c.16,0,.33.01.49.01,21.74.59,43.21,4.62,64.72,7.84,13.03-15.25,26.98-31.2,42.99-43.27,16.01-12.08,34.4-21.45,54.16-24.89l.49.32c15.68,22.59,17.8,51.8,16.79,79.27-1.21,33.38-6.45,68.39-15.2,100.63Z"/>
        <path class="cls-7" d="M554.8,347.01c1.61,3.08,3.48,5.98,5.7,8.57-8.65,1.65-16.94,4.39-24.39,9.12l-.28-2.08c5.43-6.19,11.87-11.46,18.97-15.61Z"/>
        <path class="cls-6" d="M518.63,585.58c.07,2.85.1,5.72.1,8.59h-.32c-4.61,4.28-12.39,2.11-17.02-2.16-4.62-4.28-7.48-10.16-12-14.54-5.05-4.9-11.82-7.59-17.52-11.72-7.78-5.64-13.49-14.07-15.82-23.39-2.58-10.31-1.28-21.84-6.81-30.91-4.46-7.33-12.79-11.91-16.35-19.72-4.38-9.63.81-23.67,10.81-27.13l-.07-.22c6.04-1.77,12.03-3.72,17.9-5.98,12.07-4.65,23.6-10.67,34.35-17.86l.49.73c3.32,17.41,7.08,33.1,10.43,50.51,5.96,30.95,11.07,62.22,11.83,93.8Z"/>
        <path class="cls-7" d="M440.83,717.78h-.05c-4.24.07-8.48.13-12.73.2-.35,4.66-1.49,9.1-4.34,12.75-5.03,6.45-13.92,8.36-22.09,8.72-6.6.3-13.54-.23-19.14-3.73-4.87-3.05-7.98-7.79-10.17-13.15l-.16.07c-53.34,3.96-107.34,4.96-159.34-11.04-21-7-39-18-53-37-1.39-2.23-2.73-4.44-4-6.64-7.87-13.6-13.42-26.87-16-42.36-1.11-7.19-1.68-14.27-1.76-21.21-.87-68.34,45.02-124.81,86.9-174.19l.69-.97c31.82,22.98,68.96,38.79,107.63,45.77,11.87,2.15,23.92,3.51,35.98,3.35,20.87-.26,41.41-5.03,61.59-10.4,4.28-1.14,8.54-2.31,12.79-3.57l.07.22c-10,3.46-15.19,17.5-10.81,27.13,3.56,7.81,11.89,12.39,16.35,19.72,5.53,9.07,4.23,20.6,6.81,30.91,2.33,9.32,8.04,17.75,15.82,23.39,5.7,4.13,12.47,6.82,17.52,11.72,4.52,4.38,7.38,10.26,12,14.54,4.63,4.27,12.41,6.44,17.02,2.16h.32c0,28.5-3.58,57.8-14.36,84.18h-.1c-.52,6.32-.98,12.65-1.36,18.98-.66,10.88-1.74,23.05-10.52,30.42-5.33,4.48-12.61,6.27-19.65,7.2-8.73,1.14-18.49.89-24.92-4.54-3.87-3.26-5.86-7.78-6.99-12.63ZM246.36,593.92c18.34-13.23,23.77-41.34,11.69-60.46-2.52-3.98-5.84-7.68-10.24-9.36-2.08-.8-4.56-1.06-6.44.14-1.29.83-2.09,2.21-2.91,3.51-8.33,13.18-23.55,21.71-39.14,21.95-7,.11-14.52-1.23-20.63,2.21-6.4,3.41-7.82,4.27-10.85,9.65-3.03,5.39-3.89,11.8-3.34,17.95.99,11.13,7.44,22.52,18.07,25.98,5.39,1.76,11.22,1.34,16.88.9,16.34-1.28,33.61-2.87,46.91-12.47Z"/>
        <path class="cls-6" d="M172.09,341.46c-1.64-2.32-3.54-4.34-5.74-5.81,1.54-1.92,3.09-3.85,4.62-5.8,7.85-10.01,15.26-20.47,19.22-32.49,2.8-8.49,3.8-17.56,7.27-25.8.25-.58.51-1.16.79-1.73l-.4-.19c-13.8-48.59-12.83-104.11,3.69-151.85l.9-.31c38.43,11.29,74.28,33.54,102.53,61.94,19.1-10.06,41.22-13.11,62.8-12.58l-.02.79c12.73,25.59,9.66,56.88-6.8,80.24-7.66,10.85-18.54,21.17-18.41,34.45.05,5.49,2.07,10.74,3.31,16.1,2.16,9.37,1.94,19.11,1.57,28.72-.39,10.35-1.12,21.28-6.95,29.84-7.79,11.45-22.71,15.67-36.54,16.48-13.83.81-27.93-.92-41.4,2.29-13.87,3.31-26.37,11.71-40.54,13.24-13.29,1.43-27.13-3.77-36.19-13.6-1.99-2.16-3.81-4.57-6.34-6.06-2.54-1.5-8.62-.8-10.76,1.21,2.51-5.76,6.12-11.04,10.58-15.47l-.83-.65c-1.53-4.26-3.56-9.02-6.36-12.96Z"/>
        <path class="cls-6" d="M258.05,533.46c12.08,19.12,6.65,47.23-11.69,60.46-13.3,9.6-30.57,11.19-46.91,12.47-5.66.44-11.49.86-16.88-.9-10.63-3.46-17.08-14.85-18.07-25.98-.55-6.15.31-12.56,3.34-17.95,3.03-5.38,4.45-6.24,10.85-9.65,6.11-3.44,13.63-2.1,20.63-2.21,15.59-.24,30.81-8.77,39.14-21.95.82-1.3,1.62-2.68,2.91-3.51,1.88-1.2,4.36-.94,6.44-.14,4.4,1.68,7.72,5.38,10.24,9.36Z"/>
        <path class="cls-7" d="M155.81,667.96l-.16.09c-28.51-23.28-57.51-47.1-77.36-78.09-21.21-33.14-30.58-72.76-31.3-112.22h.63c1.51-1.85,4.36-2,6.6-1.17,2.24.82,4.1,2.4,6.16,3.61,5.79,3.41,13.29,3.7,19.33.76,1.29-.63,2.59-1.42,4.03-1.45,1.46-.03,2.8.71,4.18,1.2,4.39,1.55,9.63.26,12.81-3.13,1.73-1.85,2.83-4.19,4.33-6.22,1.49-2.04,3.63-3.88,6.16-3.96l.99.03c-.42,14.11-1.31,28.28-1.47,42.35-.38,33.6,4.54,69.7,27.08,94.63h.23c.08,6.94.65,14.02,1.76,21.21,2.58,15.49,8.13,28.76,16,42.36Z"/>
        <path class="cls-6" d="M108.03,409.29c4.46,19.02,4.78,38.52,4.18,58.12l-.99-.03c-2.53.08-4.67,1.92-6.16,3.96-1.5,2.03-2.6,4.37-4.33,6.22-3.18,3.39-8.42,4.68-12.81,3.13-1.38-.49-2.72-1.23-4.18-1.2-1.44.03-2.74.82-4.03,1.45-6.04,2.94-13.54,2.65-19.33-.76-2.06-1.21-3.92-2.79-6.16-3.61-2.24-.83-5.09-.68-6.6,1.16h-.63c-.1-4.92-.05-9.85.12-14.77.77-21.96,4.46-44.98,18.11-62.21,3.77-4.76,8.36-9.05,13.96-11.4,5.6-2.36,12.32-2.54,17.56.54,6.63,3.9,9.53,11.9,11.29,19.4Z"/>
      </g>
      <g>
        <path class="cls-1" d="M201.54,117.79c-16.52,47.74-17.49,103.26-3.69,151.85"/>
        <path class="cls-1" d="M212.54,160.16c4.32,2.93,7.55,7.16,10.71,11.31,9.62,12.66,19.6,26.18,21.27,42"/>
        <path class="cls-1" d="M244.52,213.47c-13.88,10.6-24.03,24.7-34.62,38.58-4.31,5.65-8.65,11.36-11.65,17.78-.28.57-.54,1.15-.79,1.73-3.47,8.24-4.47,17.31-7.27,25.8-3.96,12.02-11.37,22.48-19.22,32.49-1.53,1.95-3.08,3.88-4.62,5.8"/>
        <path class="cls-1" d="M166.35,335.65c2.2,1.47,4.1,3.49,5.74,5.81,2.8,3.94,4.83,8.7,6.36,12.96"/>
        <path class="cls-1" d="M179.28,355.07c-4.46,4.43-8.07,9.71-10.58,15.47"/>
        <path class="cls-1" d="M168.45,371.71c15.67,22.25,35.15,41.6,57.19,57.52,31.82,22.98,68.96,38.79,107.63,45.77,11.87,2.15,23.92,3.51,35.98,3.35,20.87-.26,41.41-5.03,61.59-10.4,4.28-1.14,8.54-2.31,12.79-3.57,6.04-1.77,12.03-3.72,17.9-5.98,12.07-4.65,23.6-10.67,34.35-17.86,22.74-15.18,42-35.6,55.59-59.34"/>
        <path class="cls-1" d="M543.12,373.54c2.37,2.92,5.31,5.4,8.58,7.27.06.04.13.07.19.11"/>
        <path class="cls-1" d="M543.12,372.75c4.68-6.58,12.51-11.04,20.15-13.64"/>
        <path class="cls-1" d="M563.95,359.1c-.13-.11-.25-.22-.37-.33-1.1-1-2.13-2.07-3.08-3.19-2.22-2.59-4.09-5.49-5.7-8.57-3.58-6.82-5.89-14.55-7.99-21.88-3.77-13.17-8.67-26.02-14.6-38.38-10.34-21.59-23.83-41.68-39.96-59.38-5.31-5.83-11.45-11.7-19.24-12.97"/>
        <path class="cls-1" d="M473.01,214.4c9.6-22.8,24.22-45.08,41.97-62.3"/>
        <path class="cls-1" d="M432.98,174.69c13.03-15.25,26.98-31.2,42.99-43.27,16.01-12.08,34.4-21.45,54.16-24.89"/>
        <path class="cls-1" d="M530.62,106.85c15.68,22.59,17.8,51.8,16.79,79.27-1.21,33.38-6.45,68.39-15.2,100.63"/>
        <path class="cls-1" d="M202.44,117.48c38.43,11.29,74.28,33.54,102.53,61.94"/>
        <path class="cls-1" d="M304.97,179.42c19.1-10.06,41.22-13.11,62.8-12.58.16,0,.33.01.49.01,21.74.59,43.21,4.62,64.72,7.84"/>
        <path class="cls-3" d="M457.85,325.4c13.31-4.05,27.63-2.85,40.38,3.39"/>
        <path class="cls-3" d="M283.61,320.61c18.12-4.71,37.45-2.8,54.64,5.4"/>
        <path class="cls-3" d="M460.78,321.75c-.79-2.68-1.58-5.37-2.36-8.06"/>
        <path class="cls-3" d="M473.25,319.54v-11.72"/>
        <path class="cls-3" d="M490.46,321.74c.56-3.97,2.21-7.69,4.61-10.41"/>
        <path class="cls-3" d="M291.28,314.74c-.8-2.54-1.59-5.08-2.38-7.62"/>
        <path class="cls-3" d="M310.93,316.86c.72-4.41,1.43-8.82,2.14-13.22"/>
        <path class="cls-3" d="M333.44,321.04c1.26-3.53,3.22-6.72,5.69-9.22"/>
        <path class="cls-4" d="M391.49,369.17c6.54-1.79,13.25-2.99,20.01-3.58,1.87-.16,4.21-.03,5.02,1.67.62,1.29-.01,2.81-.66,4.08-1.53,2.98-3.48,6.11-6.65,7.19-2.93,1-6.12-.02-9.05-1.03-2.51-.87-5.42-2.19-5.84-4.82-.05-.31-.05-.66.13-.92.22-.3.61-.39.98-.46,4.7-.81,9.63-.2,14,1.73"/>
        <path class="cls-1" d="M407.2,392.99c.36.93.72,1.88,1.12,2.82,1.51,3.59,3.42,7.04,6.68,9.04,2.59,1.59,5.73,2.04,8.77,1.99,4.13-.07,8.31-1.04,11.78-3.29s6.15-5.85,6.81-9.93"/>
        <path class="cls-1" d="M407.71,393.2c.35.84.55,1.72.61,2.61.19,2.43-.63,4.94-2.08,6.92-1.98,2.72-5,4.52-8.16,5.67-5.7,2.07-12.22,2.12-17.74-.42-5.51-2.53-9.83-7.79-10.68-13.79"/>
        <path class="cls-1" d="M535.83,362.62c5.43-6.19,11.87-11.46,18.97-15.61,6.91-4.04,14.42-7.01,22.23-8.73"/>
        <path class="cls-1" d="M536.11,364.7c7.45-4.73,15.74-7.47,24.39-9.12,10.2-1.95,20.89-2.37,31.29-2.7"/>
        <path class="cls-1" d="M202.6,351.03c-6.04-9.56-16.15-15.98-26.84-19.69-1.58-.55-3.18-1.04-4.79-1.49-9.25-2.58-18.91-3.65-28.49-4.7"/>
        <path class="cls-1" d="M199.38,351.82c-6-5.28-13.76-8.27-21.64-9.64-1.87-.32-3.76-.56-5.65-.72-6.07-.55-12.2-.37-18.29-.06"/>
        <path class="cls-1" d="M504.37,678.35c10.78-26.38,14.36-55.68,14.36-84.18,0-2.87-.03-5.74-.1-8.59-.76-31.58-5.87-62.85-11.83-93.8-3.35-17.41-7.11-33.1-10.43-50.51"/>
        <path class="cls-1" d="M427.77,717.98h.28c4.25-.07,8.49-.13,12.73-.19"/>
        <path class="cls-1" d="M224.95,430.2c-41.88,49.38-87.77,105.85-86.9,174.19.08,6.94.65,14.02,1.76,21.21,2.58,15.49,8.13,28.76,16,42.36,1.27,2.2,2.61,4.41,4,6.64,14,19,32,30,53,37,52,16,106,15,159.34,11.04"/>
        <path class="cls-1" d="M155.65,668.05c-28.51-23.28-57.51-47.1-77.36-78.09-21.21-33.14-30.58-72.76-31.3-112.22-.1-4.93-.05-9.86.12-14.78.77-21.96,4.46-44.98,18.11-62.21,3.77-4.76,8.36-9.05,13.96-11.4,5.6-2.36,12.32-2.54,17.56.54,6.63,3.9,9.53,11.9,11.29,19.4,4.46,19.02,4.78,38.52,4.18,58.12-.42,14.11-1.31,28.28-1.47,42.35-.38,33.6,4.54,69.7,27.08,94.63"/>
        <path class="cls-1" d="M346.05,625.5c8.58,26.99,15.91,54.37,21.98,82.04,1.09,4.99,2.33,10.26,4.28,15.03,2.19,5.36,5.3,10.1,10.17,13.15,5.6,3.5,12.54,4.03,19.14,3.73,8.17-.36,17.06-2.27,22.09-8.72,2.85-3.65,3.99-8.09,4.34-12.75.28-3.66.06-7.45-.2-11.08-1.71-23.5-3.41-47-5.12-70.5"/>
        <path class="cls-1" d="M512.22,612.46c-3.49,21.88-6.14,43.86-7.95,65.88-.52,6.33-.98,12.66-1.36,18.99-.66,10.88-1.74,23.05-10.52,30.42-5.33,4.48-12.61,6.27-19.65,7.2-8.73,1.14-18.49.89-24.92-4.54-3.87-3.26-5.86-7.78-6.99-12.63-.77-3.3-1.15-6.76-1.46-10.1-2.21-23.46-4.41-46.93-6.61-70.4"/>
        <path class="cls-1" d="M178.69,551.91c-6.4,3.41-7.82,4.27-10.85,9.65-3.03,5.39-3.89,11.8-3.34,17.95.99,11.13,7.44,22.52,18.07,25.98,5.39,1.76,11.22,1.34,16.88.9,16.34-1.28,33.61-2.87,46.91-12.47,18.34-13.23,23.77-41.34,11.69-60.46-2.52-3.98-5.84-7.68-10.24-9.36-2.08-.8-4.56-1.06-6.44.14-1.29.83-2.09,2.21-2.91,3.51-8.33,13.18-23.55,21.71-39.14,21.95-7,.11-14.52-1.23-20.63,2.21Z"/>
        <path class="cls-1" d="M515.1,158.3c5.73,25.87,5.83,52.99.29,78.91"/>
        <path class="cls-1" d="M209.87,167.8c-5.01,22.32-5.39,45.66-1.12,68.13"/>
        <path class="cls-1" d="M443.7,464.6c-10,3.46-15.19,17.5-10.81,27.13,3.56,7.81,11.89,12.39,16.35,19.72,5.53,9.07,4.23,20.6,6.81,30.91,2.33,9.32,8.04,17.75,15.82,23.39,5.7,4.13,12.47,6.82,17.52,11.72,4.52,4.38,7.38,10.26,12,14.54,4.63,4.27,12.41,6.44,17.02,2.16"/>
        <path class="cls-1" d="M47.62,477.73c1.51-1.84,4.36-1.99,6.6-1.16,2.24.82,4.1,2.4,6.16,3.61,5.79,3.41,13.29,3.7,19.33.76,1.29-.63,2.59-1.42,4.03-1.45,1.46-.03,2.8.71,4.18,1.2,4.39,1.55,9.63.26,12.81-3.13,1.73-1.85,2.83-4.19,4.33-6.22,1.49-2.04,3.63-3.88,6.16-3.96"/>
        <path class="cls-1" d="M122.42,381.2c2.85,5.59,4.85,11.6,5.92,17.77"/>
        <path class="cls-1" d="M136.07,374.67c3.56,5.43,6.17,11.48,7.69,17.78"/>
      </g>
    </g>
    <path class="cls-5" d="M46.15,380.75c-5.63,6.29-10.35,13.35-13.94,20.99-.82,1.74,1.77,3.26,2.59,1.51,3.49-7.41,8.01-14.29,13.47-20.39,1.28-1.43-.83-3.56-2.12-2.12h0Z"/>
    <path class="cls-5" d="M36.4,376.88c-3.56,4.74-7.11,9.48-10.67,14.22-.49.65-.1,1.68.54,2.05.77.45,1.56.11,2.05-.54,3.56-4.74,7.11-9.48,10.67-14.22.49-.65.1-1.68-.54-2.05-.77-.45-1.56-.11-2.05.54h0Z"/>
  </g>
  <g id="Layer_8" data-name="Layer 8">
    <g>
      <g>
        <path class="cls-7" d="M554.8,347.01c1.61,3.08,3.48,5.98,5.7,8.57-8.65,1.65-16.94,4.39-24.39,9.12l-.28-2.08c5.43-6.19,11.87-11.46,18.97-15.61Z"/>
        <path class="cls-6" d="M518.63,585.58c.07,2.85.1,5.72.1,8.59h-.32c-4.61,4.28-12.39,2.11-17.02-2.16-4.62-4.28-7.48-10.16-12-14.54-5.05-4.9-11.82-7.59-17.52-11.72-7.78-5.64-13.49-14.07-15.82-23.39-2.58-10.31-1.28-21.84-6.81-30.91-4.46-7.33-12.79-11.91-16.35-19.72-4.38-9.63.81-23.67,10.81-27.13l-.07-.22c6.04-1.77,12.03-3.72,17.9-5.98,12.07-4.65,23.6-10.67,34.35-17.86l.49.73c3.32,17.41,7.08,33.1,10.43,50.51,5.96,30.95,11.07,62.22,11.83,93.8Z"/>
        <path class="cls-7" d="M157.58,670.96c-8.81-14.66-15-28.73-17.77-45.36-.68-4.44-1.16-8.84-1.45-13.19-4.75-71.96,43.08-130.91,86.59-182.21l.69-.97c31.82,22.98,68.96,38.79,107.63,45.77,11.87,2.15,23.92,3.51,35.98,3.35,20.87-.26,41.41-5.03,61.59-10.4,4.28-1.14,8.54-2.31,12.79-3.57l.07.22c-10,3.46-15.19,17.5-10.81,27.13,3.56,7.81,11.89,12.39,16.35,19.72,5.53,9.07,4.23,20.6,6.81,30.91,2.33,9.32,8.04,17.75,15.82,23.39,5.7,4.13,12.47,6.82,17.52,11.72,4.52,4.38,7.38,10.26,12,14.54,4.63,4.27,12.41,6.44,17.02,2.16h.32c0,28.5-3.58,57.8-14.36,84.18h-.1c-.52,6.32-.98,12.65-1.36,18.98-.66,10.88-1.74,23.05-10.52,30.42-5.33,4.48-12.61,6.27-19.65,7.2-8.73,1.14-18.49.89-24.92-4.54-3.84-3.23-5.82-7.7-6.96-12.51h-.02c-4.26.03-8.52.05-12.78.08h-.01c-.35,4.66-1.49,9.1-4.34,12.75-5.03,6.45-13.92,8.36-22.09,8.72-6.6.3-13.54-.23-19.14-3.73-4.87-3.05-7.98-7.79-10.17-13.15l-.16.07c-53.34,3.96-107.34,4.96-159.34-11.04-21-7-39-18-53-37-.76-1.22-1.51-2.43-2.23-3.64ZM246.36,593.92c18.34-13.23,23.77-41.34,11.69-60.46-2.52-3.98-5.84-7.68-10.24-9.36-2.08-.8-4.56-1.06-6.44.14-1.29.83-2.09,2.21-2.91,3.51-8.33,13.18-23.55,21.71-39.14,21.95-7,.11-14.52-1.23-20.63,2.21-6.4,3.41-7.82,4.27-10.85,9.65-3.03,5.39-3.89,11.8-3.34,17.95.99,11.13,7.44,22.52,18.07,25.98,5.39,1.76,11.22,1.34,16.88.9,16.34-1.28,33.61-2.87,46.91-12.47Z"/>
        <path class="cls-7" d="M532.21,286.75c5.93,12.36,10.83,25.21,14.6,38.38,2.1,7.33,4.41,15.06,7.99,21.88-7.1,4.15-13.54,9.42-18.97,15.61l.28,2.08c7.45-4.73,15.74-7.47,24.39-9.12.95,1.12,1.98,2.19,3.08,3.19l-.31.34c-7.64,2.6-15.47,7.06-20.15,13.64v.79c2.37,2.92,5.31,5.4,8.58,7.27l-.23.39c-13.59,23.74-32.85,44.16-55.59,59.34-10.75,7.19-22.28,13.21-34.35,17.86-5.87,2.26-11.86,4.21-17.9,5.98-4.25,1.26-8.51,2.43-12.79,3.57-20.18,5.37-40.72,10.14-61.59,10.4-12.06.16-24.11-1.2-35.98-3.35-38.67-6.98-75.81-22.79-107.63-45.77-22.04-15.92-41.52-35.27-57.19-57.52l.25-1.17c2.14-2.01,8.22-2.71,10.76-1.21,2.53,1.49,4.35,3.9,6.34,6.06,9.06,9.83,22.9,15.03,36.19,13.6,14.17-1.53,26.67-9.93,40.54-13.24,13.47-3.21,27.57-1.48,41.4-2.29,13.83-.81,28.75-5.03,36.54-16.48,5.83-8.56,6.56-19.49,6.95-29.84.37-9.61.59-19.35-1.57-28.72-1.24-5.36-3.26-10.61-3.31-16.1-.13-13.28,10.75-23.6,18.41-34.45,16.46-23.36,19.53-54.65,6.8-80.24l.02-.79c.16,0,.33.01.49.01,21.74.59,43.21,4.62,64.72,7.84,13.03-15.25,26.98-31.2,42.99-43.27,16.01-12.08,34.4-21.45,54.16-24.89l.49.32c15.68,22.59,17.8,51.8,16.79,79.27-1.21,33.38-6.45,68.39-15.2,100.63Z"/>
        <path class="cls-6" d="M170.97,329.85c7.85-10.01,15.26-20.47,19.22-32.49,2.8-8.49,3.8-17.56,7.27-25.8.25-.58.51-1.16.79-1.73l-.4-.19c-13.8-48.59-12.83-104.11,3.69-151.85l.9-.31c38.43,11.29,74.28,33.54,102.53,61.94,19.1-10.06,41.22-13.11,62.8-12.58l-.02.79c12.73,25.59,9.66,56.88-6.8,80.24-7.66,10.85-18.54,21.17-18.41,34.45.05,5.49,2.07,10.74,3.31,16.1,2.16,9.37,1.94,19.11,1.57,28.72-.39,10.35-1.12,21.28-6.95,29.84-7.79,11.45-22.71,15.67-36.54,16.48-13.83.81-27.93-.92-41.4,2.29-13.87,3.31-26.37,11.71-40.54,13.24-13.29,1.43-27.13-3.77-36.19-13.6-1.99-2.16-3.81-4.57-6.34-6.06-2.54-1.5-8.62-.8-10.76,1.21,2.51-5.76,6.12-11.04,10.58-15.47l-.83-.65c-1.53-4.26-3.56-9.02-6.36-12.96-1.64-2.32-3.54-4.34-5.74-5.81,1.54-1.92,3.09-3.85,4.62-5.8Z"/>
        <path class="cls-6" d="M258.05,533.46c12.08,19.12,6.65,47.23-11.69,60.46-13.3,9.6-30.57,11.19-46.91,12.47-5.66.44-11.49.86-16.88-.9-10.63-3.46-17.08-14.85-18.07-25.98-.55-6.15.31-12.56,3.34-17.95,3.03-5.38,4.45-6.24,10.85-9.65,6.11-3.44,13.63-2.1,20.63-2.21,15.59-.24,30.81-8.77,39.14-21.95.82-1.3,1.62-2.68,2.91-3.51,1.88-1.2,4.36-.94,6.44-.14,4.4,1.68,7.72,5.38,10.24,9.36Z"/>
        <path class="cls-7" d="M139.81,625.6c2.77,16.63,8.96,30.7,17.77,45.36-30.61-20.33-58.52-38.11-81.28-66.97-24.36-30.89-37.58-69.4-42.17-108.6l.62-.07c1.33-1.98,4.15-2.41,6.46-1.8,2.31.6,4.32,1.99,6.48,2.99,6.1,2.82,13.59,2.37,19.31-1.15,1.23-.75,2.44-1.66,3.87-1.84,1.45-.17,2.86.44,4.28.79,4.52,1.11,9.61-.69,12.44-4.38,1.54-2.01,2.41-4.44,3.7-6.61,1.29-2.18,3.24-4.22,5.74-4.54l1-.07c.97,14.09,1.47,28.27,2.69,42.29,2.91,33.48,11.36,68.92,36.24,91.51l1.4-.1c.29,4.35.77,8.75,1.45,13.19Z"/>
        <path class="cls-6" d="M98.03,478.71l-1,.07c-2.5.32-4.45,2.36-5.74,4.54-1.29,2.17-2.16,4.6-3.7,6.61-2.83,3.69-7.92,5.49-12.44,4.38-1.42-.35-2.83-.96-4.28-.79-1.43.18-2.64,1.09-3.87,1.84-5.72,3.52-13.21,3.97-19.31,1.15-2.16-1-4.17-2.39-6.48-2.99-2.31-.61-5.13-.18-6.46,1.8l-.62.07c-.59-4.9-1.03-9.81-1.34-14.72-1.38-21.93.03-45.2,11.92-63.68,3.29-5.11,7.43-9.83,12.77-12.73,5.34-2.89,12.02-3.73,17.53-1.18,6.99,3.23,10.65,10.91,13.14,18.2,6.31,18.49,8.54,37.87,9.88,57.43Z"/>
      </g>
      <g>
        <path class="cls-1" d="M201.54,117.79c-16.52,47.74-17.49,103.26-3.69,151.85"/>
        <path class="cls-1" d="M212.54,160.16c4.32,2.93,7.55,7.16,10.71,11.31,9.62,12.66,19.6,26.18,21.27,42"/>
        <path class="cls-1" d="M244.52,213.47c-13.88,10.6-24.03,24.7-34.62,38.58-4.31,5.65-8.65,11.36-11.65,17.78-.28.57-.54,1.15-.79,1.73-3.47,8.24-4.47,17.31-7.27,25.8-3.96,12.02-11.37,22.48-19.22,32.49-1.53,1.95-3.08,3.88-4.62,5.8"/>
        <path class="cls-1" d="M166.35,335.65c2.2,1.47,4.1,3.49,5.74,5.81,2.8,3.94,4.83,8.7,6.36,12.96"/>
        <path class="cls-1" d="M179.28,355.07c-4.46,4.43-8.07,9.71-10.58,15.47"/>
        <path class="cls-1" d="M168.45,371.71c15.67,22.25,35.15,41.6,57.19,57.52,31.82,22.98,68.96,38.79,107.63,45.77,11.87,2.15,23.92,3.51,35.98,3.35,20.87-.26,41.41-5.03,61.59-10.4,4.28-1.14,8.54-2.31,12.79-3.57,6.04-1.77,12.03-3.72,17.9-5.98,12.07-4.65,23.6-10.67,34.35-17.86,22.74-15.18,42-35.6,55.59-59.34"/>
        <path class="cls-1" d="M543.12,373.54c2.37,2.92,5.31,5.4,8.58,7.27.06.04.13.07.19.11"/>
        <path class="cls-1" d="M543.12,372.75c4.68-6.58,12.51-11.04,20.15-13.64"/>
        <path class="cls-1" d="M563.95,359.1c-.13-.11-.25-.22-.37-.33-1.1-1-2.13-2.07-3.08-3.19-2.22-2.59-4.09-5.49-5.7-8.57-3.58-6.82-5.89-14.55-7.99-21.88-3.77-13.17-8.67-26.02-14.6-38.38-10.34-21.59-23.83-41.68-39.96-59.38-5.31-5.83-11.45-11.7-19.24-12.97"/>
        <path class="cls-1" d="M473.01,214.4c9.6-22.8,24.22-45.08,41.97-62.3"/>
        <path class="cls-1" d="M432.98,174.69c13.03-15.25,26.98-31.2,42.99-43.27,16.01-12.08,34.4-21.45,54.16-24.89"/>
        <path class="cls-1" d="M530.62,106.85c15.68,22.59,17.8,51.8,16.79,79.27-1.21,33.38-6.45,68.39-15.2,100.63"/>
        <path class="cls-1" d="M202.44,117.48c38.43,11.29,74.28,33.54,102.53,61.94"/>
        <path class="cls-1" d="M304.97,179.42c19.1-10.06,41.22-13.11,62.8-12.58.16,0,.33.01.49.01,21.74.59,43.21,4.62,64.72,7.84"/>
        <path class="cls-3" d="M457.85,325.4c13.31-4.05,27.63-2.85,40.38,3.39"/>
        <path class="cls-3" d="M283.61,320.61c18.12-4.71,37.45-2.8,54.64,5.4"/>
        <path class="cls-3" d="M460.78,321.75c-.79-2.68-1.58-5.37-2.36-8.06"/>
        <path class="cls-3" d="M473.25,319.54v-11.72"/>
        <path class="cls-3" d="M490.46,321.74c.56-3.97,2.21-7.69,4.61-10.41"/>
        <path class="cls-3" d="M291.28,314.74c-.8-2.54-1.59-5.08-2.38-7.62"/>
        <path class="cls-3" d="M310.93,316.86c.72-4.41,1.43-8.82,2.14-13.22"/>
        <path class="cls-3" d="M333.44,321.04c1.26-3.53,3.22-6.72,5.69-9.22"/>
        <path class="cls-2" d="M391.49,369.17c6.54-1.79,13.25-2.99,20.01-3.58,1.87-.16,4.21-.03,5.02,1.67.62,1.29-.01,2.81-.66,4.08-1.53,2.98-3.48,6.11-6.65,7.19-2.93,1-6.12-.02-9.05-1.03-2.51-.87-5.42-2.19-5.84-4.82-.05-.31-.05-.66.13-.92.22-.3.61-.39.98-.46,4.7-.81,9.63-.2,14,1.73"/>
        <path class="cls-1" d="M407.2,392.99c.36.93.72,1.88,1.12,2.82,1.51,3.59,3.42,7.04,6.68,9.04,2.59,1.59,5.73,2.04,8.77,1.99,4.13-.07,8.31-1.04,11.78-3.29s6.15-5.85,6.81-9.93"/>
        <path class="cls-1" d="M407.71,393.2c.35.84.55,1.72.61,2.61.19,2.43-.63,4.94-2.08,6.92-1.98,2.72-5,4.52-8.16,5.67-5.7,2.07-12.22,2.12-17.74-.42-5.51-2.53-9.83-7.79-10.68-13.79"/>
        <path class="cls-1" d="M535.83,362.62c5.43-6.19,11.87-11.46,18.97-15.61,6.91-4.04,14.42-7.01,22.23-8.73"/>
        <path class="cls-1" d="M536.11,364.7c7.45-4.73,15.74-7.47,24.39-9.12,10.2-1.95,20.89-2.37,31.29-2.7"/>
        <path class="cls-1" d="M202.6,351.03c-6.04-9.56-16.15-15.98-26.84-19.69-1.58-.55-3.18-1.04-4.79-1.49-9.25-2.58-18.91-3.65-28.49-4.7"/>
        <path class="cls-1" d="M199.38,351.82c-6-5.28-13.76-8.27-21.64-9.64-1.87-.32-3.76-.56-5.65-.72-6.07-.55-12.2-.37-18.29-.06"/>
        <path class="cls-1" d="M504.37,678.35c10.78-26.38,14.36-55.68,14.36-84.18,0-2.87-.03-5.74-.1-8.59-.76-31.58-5.87-62.85-11.83-93.8-3.35-17.41-7.11-33.1-10.43-50.51"/>
        <path class="cls-1" d="M428.06,717.98c4.26-.03,8.52-.05,12.78-.08"/>
        <path class="cls-1" d="M224.95,430.2c-43.51,51.3-91.34,110.25-86.59,182.21.29,4.35.77,8.75,1.45,13.19,2.77,16.63,8.96,30.7,17.77,45.36.72,1.21,1.47,2.42,2.23,3.64,14,19,32,30,53,37,52,16,106,15,159.34,11.04"/>
        <path class="cls-1" d="M157.7,671.04s-.08-.05-.12-.08c-30.61-20.33-58.52-38.11-81.28-66.97-24.36-30.89-37.58-69.4-42.17-108.6-.59-4.9-1.03-9.81-1.34-14.72-1.38-21.93.03-45.2,11.92-63.68,3.29-5.11,7.43-9.83,12.77-12.73,5.34-2.89,12.02-3.73,17.53-1.18,6.99,3.23,10.65,10.91,13.14,18.2,6.31,18.49,8.54,37.87,9.88,57.43.97,14.09,1.47,28.27,2.69,42.29,2.91,33.48,11.36,68.92,36.24,91.51"/>
        <path class="cls-1" d="M346.05,625.5c8.58,26.99,15.91,54.37,21.98,82.04,1.09,4.99,2.33,10.26,4.28,15.03,2.19,5.36,5.3,10.1,10.17,13.15,5.6,3.5,12.54,4.03,19.14,3.73,8.17-.36,17.06-2.27,22.09-8.72,2.85-3.65,3.99-8.09,4.34-12.75.28-3.66.06-7.45-.2-11.08-1.71-23.5-3.41-47-5.12-70.5"/>
        <path class="cls-1" d="M512.22,612.46c-3.49,21.88-6.14,43.86-7.95,65.88-.52,6.33-.98,12.66-1.36,18.99-.66,10.88-1.74,23.05-10.52,30.42-5.33,4.48-12.61,6.27-19.65,7.2-8.73,1.14-18.49.89-24.92-4.54-3.84-3.23-5.82-7.7-6.96-12.51-.79-3.34-1.18-6.84-1.49-10.22-2.21-23.46-4.41-46.93-6.61-70.4"/>
        <path class="cls-1" d="M178.69,551.91c-6.4,3.41-7.82,4.27-10.85,9.65-3.03,5.39-3.89,11.8-3.34,17.95.99,11.13,7.44,22.52,18.07,25.98,5.39,1.76,11.22,1.34,16.88.9,16.34-1.28,33.61-2.87,46.91-12.47,18.34-13.23,23.77-41.34,11.69-60.46-2.52-3.98-5.84-7.68-10.24-9.36-2.08-.8-4.56-1.06-6.44.14-1.29.83-2.09,2.21-2.91,3.51-8.33,13.18-23.55,21.71-39.14,21.95-7,.11-14.52-1.23-20.63,2.21Z"/>
        <path class="cls-1" d="M515.1,158.3c5.73,25.87,5.83,52.99.29,78.91"/>
        <path class="cls-1" d="M209.87,167.8c-5.01,22.32-5.39,45.66-1.12,68.13"/>
        <path class="cls-1" d="M367.75,167.63c12.73,25.59,9.66,56.88-6.8,80.24-7.66,10.85-18.54,21.17-18.41,34.45.05,5.49,2.07,10.74,3.31,16.1,2.16,9.37,1.94,19.11,1.57,28.72-.39,10.35-1.12,21.28-6.95,29.84-7.79,11.45-22.71,15.67-36.54,16.48-13.83.81-27.93-.92-41.4,2.29-13.87,3.31-26.37,11.71-40.54,13.24-13.29,1.43-27.13-3.77-36.19-13.6-1.99-2.16-3.81-4.57-6.34-6.06-2.54-1.5-8.62-.8-10.76,1.21"/>
        <path class="cls-1" d="M443.7,464.6c-10,3.46-15.19,17.5-10.81,27.13,3.56,7.81,11.89,12.39,16.35,19.72,5.53,9.07,4.23,20.6,6.81,30.91,2.33,9.32,8.04,17.75,15.82,23.39,5.7,4.13,12.47,6.82,17.52,11.72,4.52,4.38,7.38,10.26,12,14.54,4.63,4.27,12.41,6.44,17.02,2.16"/>
        <path class="cls-1" d="M34.75,495.32c1.33-1.98,4.15-2.41,6.46-1.8,2.31.6,4.32,1.99,6.48,2.99,6.1,2.82,13.59,2.37,19.31-1.15,1.23-.75,2.44-1.66,3.87-1.84,1.45-.17,2.86.44,4.28.79,4.52,1.11,9.61-.69,12.44-4.38,1.54-2.01,2.41-4.44,3.7-6.61,1.29-2.18,3.24-4.22,5.74-4.54"/>
        <path class="cls-3" d="M102.27,394.84c3.64,3.53,6.22,7.49,7.55,11.62"/>
        <path class="cls-3" d="M115.32,388.9c3.22,4.47,5.64,9.51,7.11,14.81"/>
      </g>
    </g>
    <path class="cls-5" d="M20.1,412.77c-3.45,4.15-6.5,8.61-9.07,13.35-.92,1.7,1.67,3.21,2.59,1.51,2.45-4.52,5.32-8.8,8.6-12.74.52-.62.61-1.51,0-2.12-.53-.53-1.6-.63-2.12,0h0Z"/>
    <path class="cls-5" d="M10.38,407.73c-3.76,5.48-7.17,11.2-10.2,17.11-.88,1.71,1.71,3.23,2.59,1.51,3.03-5.92,6.44-11.63,10.2-17.11,1.1-1.6-1.5-3.1-2.59-1.51h0Z"/>
  </g>
  <g id="Layer_5" data-name="Layer 5">
    <path class="cls-5" d="M316.91,117.51c-.41-5.51-.21-11.39,2.9-16.16,2.39-3.67,6.55-6.3,11.03-5.39,3.79.77,7.32,3.54,8.07,7.48,1.07,5.6-3.01,11.02-5.79,15.49-3.73,6-7.47,12-11.2,17.99-1.02,1.64,1.57,3.15,2.59,1.51,3.78-6.07,7.55-12.13,11.33-18.2,3.27-5.25,7.33-11.23,5.93-17.75-.99-4.61-5.06-8.13-9.51-9.28-5.04-1.3-10.1.64-13.46,4.53-4.73,5.46-5.41,12.84-4.89,19.77.14,1.91,3.14,1.93,3,0h0Z"/>
    <path class="cls-5" d="M316.51,116.67c-4.51-8.41-16.19-22.78-26.51-13.79-4.19,3.65-4.8,9.83-2.33,14.63,1.39,2.69,3.79,4.6,6.18,6.35,2.57,1.88,5.24,3.62,7.99,5.22,6.13,3.56,12.67,6.4,19.45,8.5,1.85.57,2.64-2.32.8-2.89-5.26-1.63-10.35-3.71-15.23-6.27s-9.7-5.35-13.74-8.93c-3.55-3.14-5.36-8.35-2.63-12.63,1.17-1.84,3.09-3.18,5.21-3.65,2.36-.52,4.71.32,6.69,1.56,4.95,3.1,8.81,8.34,11.53,13.41.91,1.7,3.5.19,2.59-1.51h0Z"/>
  </g>
  <g id="Layer_6" data-name="Layer 6">
    <path class="cls-5" d="M390.18,62.83c.5-4.47,3.39-8.52,7.44-10.46s9.94-1.83,13.39,1.35c2.87,2.64,2.95,7.23,1.37,10.57-1.02,2.15-2.77,3.69-4.58,5.17-2.21,1.81-4.45,3.58-6.71,5.32-4.99,3.83-10.11,7.5-15.33,11.01l2.26,1.3c0-.7-.17-1.33-.59-1.89-1.16-1.51-3.76-.02-2.59,1.51.16.1.22.22.18.38,0,1.08,1.29,1.95,2.26,1.3,5.48-3.68,10.85-7.55,16.08-11.58,2.57-1.98,5.16-3.96,7.61-6.08,2.05-1.78,3.67-3.79,4.62-6.35,1.56-4.23.97-9.58-2.45-12.77-4.07-3.79-10.73-4.36-15.76-2.37-5.71,2.26-9.51,7.55-10.2,13.6-.22,1.92,2.79,1.9,3,0h0Z"/>
    <path class="cls-5" d="M390.64,62.01c-1.68-3.76-3.73-7.61-7.27-9.93s-8.01-2.34-11.64-.4-5.71,5.87-5.72,9.89c0,4.81,3.32,8.22,6.33,11.57,4.19,4.67,8.39,9.35,12.58,14.02,1.29,1.44,3.41-.69,2.12-2.12-3.09-3.44-6.18-6.89-9.27-10.33-1.59-1.77-3.19-3.55-4.78-5.32-1.31-1.47-2.7-3-3.43-4.86-1.23-3.11-.37-6.87,2.08-9.14s6.46-2.78,9.42-1.19c3.53,1.91,5.4,5.81,6.97,9.32.79,1.76,3.37.24,2.59-1.51h0Z"/>
  </g>
  <g id="Layer_7" data-name="Layer 7">
    <path class="cls-5" d="M304.41,11.72c-.17-4.78-4.18-8-8.73-8.44-4.25-.41-8.61,1.51-11.15,4.94s-2.7,8.02-.56,11.54c1.15,1.88,2.93,3.12,4.87,4.09s3.93,1.93,5.84,3.01c4.48,2.52,8.82,5.32,12.95,8.37,1.55,1.15,3.05-1.45,1.51-2.59-5.92-4.38-12.22-8.1-18.8-11.38-1.6-.8-3.08-1.71-3.97-3.31-.77-1.39-1.04-3.09-.81-4.66.5-3.36,3.3-5.86,6.48-6.72,3.8-1.03,9.18.51,9.35,5.16.07,1.92,3.07,1.93,3,0h0Z"/>
    <path class="cls-5" d="M304.42,11.25c.28-3.22,2.37-6.23,5.35-7.53s7.06-.84,9.55,1.5c5.88,5.52-2.57,13.92-6.08,18.28-2.5,3.11-4.82,6.3-6.29,10.03-.71,1.8,2.19,2.58,2.89.8,3.13-7.95,11.04-13.03,13.85-21.12,1.44-4.14.24-8.35-3.29-10.97-3.35-2.48-7.99-2.9-11.79-1.27-4.15,1.78-6.81,5.84-7.19,10.28-.17,1.92,2.84,1.91,3,0h0Z"/>
  </g>
</svg>